<svg version="1.1" viewBox="0.0 0.0 437.501312335958 351.3884514435696" fill="none" stroke="none" stroke-linecap="square" stroke-miterlimit="10" xmlns="http://www.w3.org/2000/svg"><clipPath id="p.0"><path d="m0 0l437.5013 0l0 351.38846l-437.5013 0l0 -351.38846z" clip-rule="nonzero"/></clipPath><g clip-path="url(#p.0)"><path fill="#000000" fill-opacity="0.0" d="m0 0l437.5013 0l0 351.38846l-437.5013 0z" fill-rule="evenodd"/><path fill="#bf9000" d="m165.98526 103.58055l50.45854 21.387901l153.70625 138.83481c21.222382 19.169067 33.039642 40.672607 26.394592 48.02948c-6.6450806 7.3568726 -29.236145 -2.218811 -50.458557 -21.387909l-153.70624 -138.8348z" fill-rule="evenodd"/><path fill="#bf9000" d="m103.25269 176.19711l0 0c-5.7100525 -5.157593 -6.157913 -13.96756 -1.0003204 -19.677612l109.93586 -121.71178c2.4767609 -2.7420616 5.9413605 -4.387928 9.631638 -4.5755253c3.6902618 -0.18759537 7.3039093 1.098444 10.045975 3.5752087l41.354614 37.353455c5.7100525 5.157593 6.1579285 13.96756 1.0003357 19.677612l-109.93587 121.71177c-5.157593 5.7100525 -13.96756 6.157913 -19.677612 1.0003204z" fill-rule="evenodd"/><path fill="#f1c232" d="m140.03574 121.71405l0 0c-4.2147675 -3.8069763 -4.545349 -10.309891 -0.7383728 -14.524658l27.571762 -30.525131l0 0c1.8281708 -2.024002 4.385498 -3.2388687 7.1094055 -3.3773346c2.7238922 -0.13847351 5.3912354 0.810791 7.4152374 2.6389694l55.043655 49.71804c4.2147675 3.8069763 4.545349 10.309891 0.73835754 14.524658l-27.571747 30.525131c-3.8069763 4.2147675 -10.309891 4.545334 -14.524658 0.73835754z" fill-rule="evenodd"/><path fill="#bf9000" d="m97.78784 163.4516l0 0c-2.005188 -1.8111877 -2.1624603 -4.9049683 -0.3512802 -6.9101562l13.11734 -14.522415l0 0c0.8697586 -0.96292114 2.0864182 -1.5408936 3.3823166 -1.606781c1.2959061 -0.06587219 2.5649033 0.3857422 3.527832 1.2555084l61.385742 55.446518c2.005188 1.8111725 2.1624603 4.904953 0.35127258 6.910141l-13.11734 14.52243c-1.8111725 2.005188 -4.904953 2.1624603 -6.910141 0.35127258z" fill-rule="evenodd"/><path fill="#bf9000" d="m198.95564 51.447086l0 0c-2.005188 -1.8111801 -2.1624603 -4.9049606 -0.35128784 -6.9101486l13.11734 -14.522419l0 0c0.86976624 -0.96292496 2.0864258 -1.5409012 3.3823242 -1.6067791c1.2958984 -0.065877914 2.5648956 0.38573837 3.527832 1.2554989l61.385727 55.446518c2.005188 1.8111877 2.1624756 4.9049606 0.35128784 6.9101486l-13.11734 14.522423c-1.8111877 2.005188 -4.9049683 2.1624603 -6.9101562 0.3512802z" fill-rule="evenodd"/><path fill="#bf9000" d="m242.11313 203.21971l0 0c-3.2852478 -2.967392 -3.542923 -8.036179 -0.575531 -11.321442l19.971771 -22.111069l0 0c1.4250183 -1.5776367 3.418335 -2.524582 5.5415344 -2.6325073c2.123169 -0.107940674 4.2022705 0.63197327 5.779907 2.0569763l0 0l0 0c3.2852783 2.9674072 3.5429382 8.036179 0.575531 11.321442l-19.971771 22.111069c-2.967392 3.285263 -8.036179 3.5429382 -11.321442 0.575531z" fill-rule="evenodd"/><path fill="#bf9000" d="m257.46545 217.08665l0 0c-3.285263 -2.967392 -3.5429382 -8.036179 -0.575531 -11.321442l19.971771 -22.111069l0 0c1.4249878 -1.5776367 3.418335 -2.524582 5.5415344 -2.6325073c2.123169 -0.107940674 4.2022705 0.63197327 5.779907 2.0569763l0 0l0 0c3.2852478 2.9674072 3.5429382 8.036179 0.575531 11.321442l-19.971771 22.111069c-2.9674072 3.285263 -8.036194 3.5429382 -11.321442 0.575531z" fill-rule="evenodd"/><path fill="#bf9000" d="m241.09526 144.55742l-26.685318 29.543762c-0.540329 0.59820557 -1.2961578 0.95726013 -2.1012115 0.9981842c-0.8050537 0.040924072 -1.593399 -0.23963928 -2.1916046 -0.779953l-2.2555084 -2.0372925c-1.5258789E-4 -1.373291E-4 -1.6784668E-4 -3.8146973E-4 -3.0517578E-5 -5.340576E-4l30.759933 -34.05426l0 0c1.373291E-4 -1.5258789E-4 3.8146973E-4 -1.6784668E-4 5.493164E-4 -3.0517578E-5l2.2549744 2.037323l0 0c1.2456818 1.1251678 1.3433838 3.0471191 0.21821594 4.292801z" fill-rule="evenodd"/><path fill="#bf9000" d="m22.215223 269.3609l0 0c0 8.643066 46.315613 15.649628 103.448814 15.649628c57.1332 0 103.448814 -7.0065613 103.448814 -15.649628l0 33.204712c0 8.643036 -46.315613 15.649597 -103.448814 15.649597c-57.1332 0 -103.448814 -7.0065613 -103.448814 -15.649597z" fill-rule="evenodd"/><path fill="#d8bc66" d="m22.215223 269.3609l0 0c0 -8.643036 46.315613 -15.649612 103.448814 -15.649612c57.1332 0 103.448814 7.0065765 103.448814 15.649612l0 0c0 8.643066 -46.315613 15.649628 -103.448814 15.649628c-57.1332 0 -103.448814 -7.0065613 -103.448814 -15.649628z" fill-rule="evenodd"/><path fill="#000000" fill-opacity="0.0" d="m229.11285 269.3609l0 0c0 8.643066 -46.315613 15.649628 -103.448814 15.649628c-57.1332 0 -103.448814 -7.0065613 -103.448814 -15.649628l0 0c0 -8.643036 46.315613 -15.649612 103.448814 -15.649612c57.1332 0 103.448814 7.0065765 103.448814 15.649612l0 33.204712c0 8.643036 -46.315613 15.649597 -103.448814 15.649597c-57.1332 0 -103.448814 -7.0065613 -103.448814 -15.649597l0 -33.204712" fill-rule="evenodd"/></g></svg>